<svg height="512" viewBox="0 0 509.217 509.217" width="512" xmlns="http://www.w3.org/2000/svg"><path d="M254.609 0C118.902 0 31.284 143.81 92.174 264.066l93.46 201.142c27.283 58.721 110.708 58.636 137.951 0l93.461-201.144C477.911 143.856 390.377 0 254.609 0zM388.39 249.821c-.188.368 4.231-9.13-93.824 201.902-15.828 34.061-64.069 34.093-79.912 0-97.685-210.236-93.628-201.516-93.822-201.9C70.916 151.626 141.827 32 254.609 32c112.718 0 183.728 119.548 133.781 217.821z"/><path d="M254.609 93.068c-49.021 0-88.903 39.882-88.903 88.903s39.882 88.903 88.903 88.903 88.903-39.882 88.903-88.903-39.881-88.903-88.903-88.903zm0 145.807c-31.377 0-56.903-25.526-56.903-56.903s25.526-56.903 56.903-56.903 56.903 25.526 56.903 56.903-25.526 56.903-56.903 56.903z"/></svg>